<svg width="18" height="9" viewBox="0 0 18 9" fill="none" xmlns="http://www.w3.org/2000/svg">
<path d="M7.6155 8.154H4.077C2.949 8.154 1.9875 7.75658 1.1925 6.96175C0.3975 6.16692 0 5.20567 0 4.078C0 2.95033 0.3975 1.98875 1.1925 1.19325C1.9875 0.397751 2.949 0 4.077 0H7.6155V1H4.077C3.23083 1 2.50642 1.30133 1.90375 1.904C1.30125 2.5065 1 3.23083 1 4.077C1 4.92317 1.30125 5.6475 1.90375 6.25C2.50642 6.85267 3.23083 7.154 4.077 7.154H7.6155V8.154ZM5.5 4.577V3.577H12.5V4.577H5.5ZM10.3845 8.154V7.154H13.923C14.7692 7.154 15.4936 6.85267 16.0963 6.25C16.6988 5.6475 17 4.92317 17 4.077C17 3.23083 16.6988 2.5065 16.0963 1.904C15.4936 1.30133 14.7692 1 13.923 1H10.3845V0H13.923C15.051 0 16.0125 0.397417 16.8075 1.19225C17.6025 1.98708 18 2.94833 18 4.076C18 5.20367 17.6025 6.16525 16.8075 6.96075C16.0125 7.75625 15.051 8.154 13.923 8.154H10.3845Z" fill="white"/>
</svg>
