<svg width="20" height="20" viewBox="0 0 20 20" fill="none" xmlns="http://www.w3.org/2000/svg">
<g style="mix-blend-mode:difference" clip-path="url(#clip0_40000541_4440)">
<path d="M19.9386 5.87756C19.8892 4.81403 19.7198 4.08697 19.4728 3.44932C19.2163 2.79285 18.8751 2.23521 18.3198 1.67756C17.7645 1.12226 17.2069 0.778735 16.5481 0.524617C15.9128 0.277559 15.1857 0.108147 14.1198 0.0587351C13.0539 0.0093233 12.7128 -0.00244141 9.99747 -0.00244141C7.28218 -0.00244141 6.941 0.0093233 5.87512 0.0587351C4.81159 0.108147 4.08453 0.275206 3.44688 0.524617C2.79041 0.781088 2.23276 1.12226 1.67512 1.67756C1.11982 2.23285 0.776294 2.7905 0.522176 3.44932C0.275117 4.08462 0.105705 4.81168 0.0562937 5.87756C0.00688189 6.94344 -0.00488281 7.28462 -0.00488281 9.99991C-0.00488281 12.7152 0.00688189 13.0564 0.0562937 14.1223C0.105705 15.1858 0.272764 15.9129 0.522176 16.5505C0.778647 17.207 1.11982 17.7646 1.67512 18.3223C2.23041 18.8776 2.78806 19.2211 3.44688 19.4752C4.08218 19.7223 4.80924 19.8917 5.87512 19.9411C6.941 19.9905 7.28218 20.0023 9.99747 20.0023C12.7128 20.0023 13.0539 19.9905 14.1198 19.9411C15.1834 19.8917 15.9104 19.7246 16.5481 19.4752C17.2045 19.2187 17.7622 18.8776 18.3198 18.3223C18.8751 17.767 19.2187 17.2093 19.4728 16.5505C19.7198 15.9152 19.8892 15.1881 19.9386 14.1223C19.9881 13.0564 19.9998 12.7152 19.9998 9.99991C19.9998 7.28462 19.9881 6.94344 19.9386 5.87756ZM18.1386 14.0399C18.0939 15.014 17.9316 15.5434 17.7951 15.8964C17.6139 16.3623 17.3975 16.6964 17.0469 17.047C16.6963 17.3976 16.3645 17.614 15.8963 17.7952C15.5434 17.9317 15.0139 18.094 14.0398 18.1387C12.9857 18.1858 12.6704 18.1976 9.99983 18.1976C7.32924 18.1976 7.01394 18.1881 5.95982 18.1387C4.98571 18.094 4.45629 17.9317 4.10335 17.7952C3.63747 17.614 3.30335 17.3976 2.95276 17.047C2.60218 16.6964 2.38571 16.3646 2.20453 15.8964C2.06806 15.5434 1.90571 15.014 1.861 14.0399C1.81394 12.9858 1.80218 12.6681 1.80218 9.99991C1.80218 7.33168 1.81159 7.01403 1.861 5.95991C1.90571 4.98579 2.06806 4.45638 2.20453 4.10344C2.38571 3.63756 2.60218 3.30344 2.95276 2.95285C3.30335 2.60226 3.63512 2.38579 4.10335 2.20462C4.45629 2.06815 4.98571 1.90579 5.95982 1.86109C7.01394 1.81403 7.33159 1.80226 9.99983 1.80226C12.6681 1.80226 12.9857 1.81168 14.0398 1.86109C15.0139 1.90579 15.5434 2.06815 15.8963 2.20462C16.3622 2.38579 16.6963 2.60226 17.0469 2.95285C17.3975 3.30344 17.6139 3.63521 17.7951 4.10344C17.9316 4.45638 18.0939 4.98579 18.1386 5.95991C18.1857 7.01403 18.1975 7.33168 18.1975 9.99991C18.1975 12.6681 18.1881 12.9858 18.1386 14.0399Z" fill="white"/>
<path d="M10.0003 4.86591C7.16503 4.86591 4.86621 7.16473 4.86621 10C4.86621 12.8353 7.16503 15.1341 10.0003 15.1341C12.8356 15.1341 15.1344 12.8353 15.1344 10C15.1344 7.16473 12.8356 4.86591 10.0003 4.86591ZM10.0003 13.3341C8.16033 13.3341 6.66621 11.8424 6.66621 10C6.66621 8.15767 8.15798 6.66591 10.0003 6.66591C11.8427 6.66591 13.3344 8.15767 13.3344 10C13.3344 11.8424 11.8427 13.3341 10.0003 13.3341Z" fill="white"/>
<path d="M15.3387 5.86118C16.0014 5.86118 16.5387 5.32392 16.5387 4.66118C16.5387 3.99844 16.0014 3.46118 15.3387 3.46118C14.6759 3.46118 14.1387 3.99844 14.1387 4.66118C14.1387 5.32392 14.6759 5.86118 15.3387 5.86118Z" fill="white"/>
</g>
<defs>
<clipPath id="clip0_40000541_4440">
<rect width="20" height="20" fill="white"/>
</clipPath>
</defs>
</svg>
