<svg width="210" height="17" viewBox="0 0 210 17" fill="none" xmlns="http://www.w3.org/2000/svg">
<g style="mix-blend-mode:difference" clip-path="url(#clip0_40001091_10550)">
<path d="M86.184 3.906C87.2209 3.906 88.3313 3.906 89.3603 3.906C89.9693 3.90338 90.8329 3.95325 90.9877 3.62775L91.0009 3.60675C91.2529 3.15525 91.161 2.2155 91.1741 1.62488C91.1426 1.04738 91.2004 0.401626 90.5625 0.283501C89.2028 0.168001 87.0896 0.262501 85.7745 0.238876C85.2574 0.244126 84.7822 0.304501 84.714 0.939751C84.6589 1.722 84.567 2.74575 84.8032 3.5175C84.9686 3.89813 85.407 3.90338 86.1787 3.906H86.184ZM109.596 10.5184C109.536 12.6105 109.092 14.2984 106.559 15.6082C104.32 16.6897 101.826 16.758 99.393 16.716H99.351C95.7863 16.716 92.4446 15.6896 91.1794 13.083C91.1741 14.1068 91.1689 15.0544 91.1689 15.8025C91.1531 15.981 91.1242 16.1595 90.9694 16.2593L90.9562 16.2671C90.7384 16.401 90.2501 16.3931 89.4836 16.3958C88.7119 16.3958 87.6908 16.3958 86.8402 16.3958C86.184 16.3958 85.6485 16.401 85.3073 16.3669C85.0579 16.3406 84.903 16.2881 84.8111 16.1805C84.7665 16.1228 84.7376 16.0571 84.7192 15.9836C84.5617 16.2934 84.2336 16.4325 83.5485 16.4404C82.3541 16.4509 80.7056 16.485 79.4929 16.422C78.7605 16.3958 78.4324 15.9968 78.3982 15.3011C78.33 14.5005 78.3773 13.23 78.3562 12.2509C78.3851 10.9436 78.1725 9.18225 76.6132 8.93025C76.0121 8.8305 75.3821 9.06938 74.9569 9.49988C73.8701 10.5394 74.2402 12.9203 74.1641 14.5005C74.1772 15.9364 73.983 16.4509 72.7125 16.443C71.673 16.464 70.2923 16.4535 69.2842 16.4482C68.565 16.4456 67.7749 16.3774 67.7119 15.4849C67.6042 14.5451 67.6725 13.5503 67.6515 12.5948C67.6357 11.2271 67.62 10.1692 66.9427 9.47625C66.0581 8.484 64.3781 8.89087 63.8479 10.0433C63.0761 11.7863 63.7455 14.1094 63.3176 15.8235C63.0367 16.5559 62.1941 16.4089 61.4959 16.4509C61.068 16.4509 60.5771 16.4509 60.0915 16.4509C59.1754 16.4141 57.8944 16.569 57.246 16.275L57.2302 16.2645C56.8864 16.0072 56.973 15.498 56.9467 15.0833C56.9467 14.6029 56.9467 13.9703 56.9467 13.2563C56.5189 14.1435 55.7707 14.9231 54.4556 15.603C52.2165 16.6845 49.7227 16.7528 47.2894 16.7108H47.2474C43.7036 16.7108 40.3804 15.6949 39.102 13.1224C39.102 13.755 39.102 14.3903 39.0994 14.9546C39.0889 15.8314 39.0521 16.3144 38.2489 16.3879C37.023 16.4719 35.3955 16.4115 34.146 16.422C33.1406 16.422 32.613 16.2881 32.6051 15.1436C32.5684 14.2853 32.5999 13.1014 32.5815 12.2273C32.5526 11.3164 32.5684 10.6575 32.193 9.93563C31.3556 8.36588 28.8041 8.5575 28.1426 10.2008C27.7909 11.0329 27.846 11.9779 27.8276 12.8756C27.7672 14.0595 27.9825 15.1147 27.6255 16.0046C27.321 16.464 26.7671 16.3931 26.2237 16.4246C25.8562 16.4299 25.4231 16.4272 24.969 16.4272C24.4414 16.4272 23.8927 16.4272 23.4097 16.4272C22.6432 16.3695 21.5355 16.6136 21.3675 15.918C21.3334 15.3746 21.315 14.7341 21.3071 14.0359C20.916 14.6685 20.3437 15.1961 19.593 15.5164C18.4537 16.0571 17.0756 16.2855 15.9101 16.3669C12.4425 16.4456 5.40487 16.3669 1.55399 16.3931C1.06837 16.3931 0.708742 16.3984 0.472492 16.3774C0.296617 16.3616 0.188992 16.3275 0.120742 16.2514C0.0131173 16.1018 0.0104923 15.8891 0.00786727 15.6686C0.00786727 13.3639 -0.00788273 4.66725 0.0131173 0.777001C0.0209923 0.622126 0.0314923 0.467251 0.128617 0.357001L0.136492 0.349126C0.293992 0.231001 0.527617 0.238876 0.761242 0.233626C3.30487 0.233626 11.8965 0.225751 15.1279 0.233626C17.3014 0.233626 20.832 0.811126 21.0367 3.5385C21.0866 4.28138 20.874 5.04263 20.4619 5.66738C20.2151 6.1845 19.0654 6.90113 19.2124 7.30275C19.3357 7.5915 19.8056 7.80938 20.1049 8.03775C20.6167 8.38163 21.0184 8.82788 21.3176 9.33187C21.3255 8.2635 21.3281 7.22138 21.315 6.29475C21.3202 5.481 21.2861 5.0295 21.5775 4.84313L21.5932 4.83263C21.8741 4.683 22.2469 4.6935 22.5829 4.67775C23.4544 4.66725 24.9427 4.66988 26.0006 4.67513C26.3996 4.683 26.8459 4.6935 27.1897 4.86675C27.5152 5.03213 27.678 5.33138 27.7856 5.64638C27.8906 5.9115 27.9352 6.32363 28.2791 6.26325C28.5731 6.18188 28.8382 5.94563 29.1112 5.78813C30.345 5.0085 32.2324 4.44675 33.768 4.47825C35.7525 4.515 38.0205 5.43375 38.7607 7.40775C38.8552 7.62825 38.9261 7.87238 38.976 8.12963C40.1782 5.3025 44.1551 4.33913 47.2526 4.38638C49.5469 4.35225 51.9067 4.38638 54.0697 5.29463C55.545 5.89575 56.4427 6.7725 56.9467 7.79625C56.9467 6.93263 56.9494 6.18975 56.9546 5.69625C56.9546 5.12925 57.0911 4.7355 57.7132 4.6935C58.8787 4.599 60.2857 4.662 61.5615 4.6515C62.559 4.63313 63.2179 4.90088 63.4935 5.838C63.84 6.741 64.4306 5.81438 65.4465 5.376C65.6381 5.2815 65.835 5.19225 66.0371 5.11088C68.5939 4.06613 71.2425 4.36013 73.2952 6.11888C74.3873 6.80663 75.0855 5.63063 76.3954 5.17913C79.0781 3.98213 83.2834 4.2315 84.5171 7.34738C84.5801 7.49438 84.63 7.64925 84.6746 7.8015C84.6746 6.96675 84.6746 6.23963 84.6746 5.73825C84.6694 5.00063 84.6877 4.6935 85.7141 4.70925C86.73 4.69613 88.3339 4.704 89.3891 4.704C90.027 4.75388 91.0114 4.53863 91.1452 5.124C91.1768 5.73038 91.1925 6.72 91.1978 7.88025C92.5208 5.24475 96.3559 4.33913 99.3589 4.38375C101.653 4.34963 104.013 4.38375 106.176 5.292C108.84 6.38138 109.628 8.358 109.602 10.5131L109.596 10.5184ZM7.86712 6.07163C9.22687 6.04538 11.7731 6.174 13.0909 5.98763C14.4454 5.691 14.3614 4.49138 13.0567 4.26563C11.7416 4.1055 9.96449 4.22363 8.52599 4.1895C7.67287 4.20263 7.18199 4.13963 6.88537 4.5465L6.86962 4.5675C6.45749 5.39963 6.91162 6.1215 7.86712 6.07163ZM13.3927 10.0144C11.9411 9.86475 10.2742 9.98025 8.70974 9.94613C7.78049 9.97237 7.24499 9.85163 6.92999 10.2926L6.91687 10.3162C6.68062 10.8124 6.65437 11.6366 7.05074 12.0671C7.25549 12.2483 7.54687 12.2692 7.81987 12.285C8.63887 12.3034 10.0564 12.2903 11.1667 12.2929C12.1485 12.2614 13.0856 12.4058 13.9414 12.0435C15.2985 11.3794 14.6134 10.1719 13.3927 10.0144ZM47.9955 7.8645H47.9482C45.6251 7.8645 44.436 10.1351 45.6172 12.0461C46.5885 13.4899 49.098 13.5713 50.2372 12.264C51.7414 10.3451 50.4814 7.80675 47.9955 7.8645ZM100.102 7.8645H100.055C97.7314 7.8645 96.5423 10.1351 97.7235 12.0461C98.6948 13.4899 101.204 13.5713 102.344 12.264C103.848 10.3451 102.588 7.80675 100.102 7.8645Z" fill="white"/>
<path d="M207.346 4.473V4.70925C207.346 4.76963 207.296 4.8195 207.236 4.8195H206.585V6.741C206.585 6.80138 206.535 6.85125 206.474 6.85125H206.215C206.154 6.85125 206.104 6.80138 206.104 6.741V4.8195H205.453C205.393 4.8195 205.343 4.76963 205.343 4.70925V4.473C205.343 4.41263 205.393 4.36275 205.453 4.36275H207.236C207.296 4.36275 207.346 4.41263 207.346 4.473ZM209.89 4.36275H209.63C209.593 4.36275 209.559 4.38113 209.538 4.41263L208.803 5.5125L208.068 4.41263C208.047 4.38113 208.013 4.36275 207.976 4.36275H207.716C207.656 4.36275 207.606 4.41263 207.606 4.473V6.74363C207.606 6.804 207.656 6.85388 207.716 6.85388H207.965C208.026 6.85388 208.076 6.804 208.076 6.74363V5.26838L208.7 6.1845C208.742 6.24488 208.855 6.24488 208.897 6.1845L209.522 5.26575V6.74363C209.522 6.804 209.572 6.85388 209.632 6.85388H209.89C209.95 6.85388 210 6.804 210 6.74363V4.473C210 4.41263 209.95 4.36275 209.89 4.36275ZM205.944 10.5683C205.884 12.6604 205.44 14.3483 202.907 15.6581C200.668 16.7396 198.174 16.8079 195.741 16.7659H195.699C192.134 16.7659 188.792 15.7395 187.527 13.1329C187.522 14.1566 187.517 15.1043 187.517 15.8524C187.501 16.0309 187.472 16.2094 187.317 16.3091L187.304 16.317C187.086 16.4509 186.598 16.443 185.831 16.4456C185.06 16.4456 184.039 16.4456 183.188 16.4456C182.532 16.4456 181.996 16.4509 181.655 16.4168C181.406 16.3905 181.251 16.338 181.159 16.2304C181.148 16.2173 181.141 16.2015 181.13 16.1858C181.075 16.2803 180.988 16.3459 180.847 16.3853C180.631 16.4483 180.28 16.4614 179.791 16.4666C179.02 16.4719 177.872 16.4666 176.927 16.4666C176.229 16.4719 175.67 16.4456 175.321 16.2671C174.565 15.897 174.709 15.1699 174.035 15.4245C172.019 16.5086 169.457 16.8761 167.178 16.2829C165.293 15.8786 164.044 14.6895 163.406 13.2064C163.406 13.7813 163.406 14.3351 163.414 14.8575C163.409 15.6713 163.443 16.1228 163.151 16.3091L163.136 16.3196C162.855 16.4693 162.482 16.4587 162.146 16.4745C161.275 16.485 159.786 16.4824 158.728 16.4771C158.329 16.4693 157.88 16.4588 157.539 16.2829C157.214 16.1175 157.051 15.813 156.943 15.4954C156.838 15.2355 156.799 14.8339 156.466 14.8864C156.174 14.9625 155.917 15.2014 155.652 15.3589C154.439 16.149 152.57 16.6976 151.053 16.6714C149.126 16.6451 146.966 15.729 146.197 13.8679C146.249 14.322 146.239 14.8339 146.207 15.2591C146.186 15.7868 145.966 16.317 145.375 16.38C143.915 16.506 142.062 16.4693 140.65 16.38L140.613 16.3748C138.395 16.1516 137.699 14.2301 137.731 12.1013C137.686 11.2954 137.81 10.3504 137.581 9.59438C137.224 8.74913 136.592 8.77275 136.159 8.38163C136.416 8.7465 136.6 9.1665 136.684 9.6495C138.227 16.6399 129.803 16.8761 124.732 16.7449H124.687C122.485 16.7239 120.311 16.5165 118.267 15.6188C117.235 15.1646 116.474 14.5451 115.964 13.8679C115.93 14.6003 116.083 15.6765 115.786 16.1989L115.773 16.2173C115.621 16.4955 114.736 16.4456 114.135 16.4509C113.017 16.4509 111.785 16.4535 110.659 16.4509C109.895 16.4456 109.562 16.3879 109.47 15.8734C109.36 14.8785 109.415 13.6448 109.431 12.6656C109.431 11.7416 110.069 11.7863 110.749 11.781C111.919 11.781 113.917 11.7731 114.928 11.7863C115.012 11.7915 115.098 11.7941 115.185 11.7994C115.18 11.6366 115.185 11.4765 115.206 11.3216C115.492 10.8176 116.251 10.9331 116.781 10.8911C118.109 10.8911 120.206 10.8859 121.438 10.8938C121.9 10.9095 122.388 10.9148 122.753 11.1694C123.37 11.7495 123.897 12.4241 124.84 12.6289C125.593 12.8415 126.501 12.8468 127.252 12.6761C128.814 12.369 129.439 11.1038 127.656 10.5394C126.165 10.0984 124.304 10.2244 122.789 10.122C121.073 10.0643 118.839 9.702 117.39 8.81738C115.941 8.00363 115.258 6.33675 115.376 4.7565C115.382 0.630003 121.054 -0.00262236 124.519 0.00787764C128.147 -0.0157474 134.998 -0.175873 136.145 3.90075C136.492 5.02425 135.907 5.21588 134.906 5.23163C133.539 5.21325 130.701 5.30775 129.334 5.17913C128.578 5.07413 128.36 4.55963 127.556 4.1895C126.52 3.72488 125.199 3.68813 124.118 3.98475C122.401 4.5465 123.349 5.51775 124.666 5.71725C125.869 5.943 127.302 5.901 128.517 5.9535C130.83 6.00863 134.358 6.32363 135.93 8.09813C135.781 7.83038 135.686 7.434 135.689 6.79613C135.568 4.2105 137.453 5.33925 137.689 3.318C137.749 2.84813 137.718 2.2785 137.907 1.87163C138.161 1.32563 138.836 1.3755 139.364 1.3545C140.314 1.35188 141.692 1.34925 142.629 1.3545C142.976 1.36238 143.354 1.365 143.658 1.49625C144.511 1.953 144.007 3.22088 144.44 4.011C144.708 4.6725 145.496 4.73813 145.895 5.25788C145.997 4.97175 146.207 4.809 146.645 4.767C147.874 4.68038 149.507 4.74338 150.761 4.73288C151.767 4.73288 152.3 4.86675 152.308 6.01125C152.344 6.85388 152.315 8.01675 152.329 8.87775C152.357 9.79125 152.334 10.4528 152.696 11.1851C153.539 12.8153 156.056 12.5423 156.649 10.836C157.14 9.34238 156.82 7.35 156.949 5.88788C156.97 5.63325 157.001 5.36288 157.127 5.14763C157.568 4.5045 158.902 4.79325 159.686 4.725C160.23 4.725 160.802 4.725 161.306 4.725C162.094 4.78275 163.214 4.53338 163.367 5.25525C163.406 5.9745 163.422 6.85125 163.427 7.80675C165.081 4.18163 170.386 3.948 174.14 5.71463C174.541 5.83013 174.607 5.61225 174.662 4.998C174.709 4.20788 174.678 2.91375 174.688 2.06325C174.675 0.637878 174.793 0.212628 176.287 0.257253C177.384 0.254628 179.075 0.252003 180.009 0.257253C180.329 0.265128 180.676 0.257253 180.952 0.367503L180.967 0.375378C181.085 0.430503 181.143 0.525003 181.175 0.635253C181.356 0.330753 181.729 0.291378 182.125 0.288753C183.44 0.309753 185.553 0.217878 186.913 0.333378C187.551 0.451503 187.493 1.09725 187.525 1.67475C187.511 2.26538 187.603 3.2025 187.351 3.65663L187.338 3.67763C187.183 4.00575 186.317 3.95325 185.711 3.95588C184.682 3.95588 183.569 3.95588 182.534 3.95588C181.826 3.95588 181.4 3.94538 181.209 3.65138C181.209 4.06875 181.211 4.49663 181.214 4.935C181.361 4.81425 181.616 4.75913 182.057 4.767C183.073 4.75388 184.676 4.76175 185.732 4.76175C186.37 4.81163 187.354 4.59638 187.488 5.18175C187.519 5.78813 187.535 6.77775 187.54 7.938C188.863 5.3025 192.696 4.39688 195.701 4.4415C197.996 4.40738 200.356 4.4415 202.519 5.34975C205.183 6.43913 205.97 8.41575 205.944 10.5709V10.5683ZM145.91 12.9281C145.706 11.823 145.821 10.4554 145.79 9.27413C145.79 8.98013 145.79 8.67038 145.79 8.358C145.446 8.70975 144.923 8.83575 144.616 9.2505C144.118 9.82013 144.186 11.004 144.566 11.6288C144.902 12.1931 145.572 12.3848 145.908 12.9281H145.91ZM174.68 10.4528V10.4134C174.659 8.59425 172.549 7.64663 170.948 8.25825C169.029 8.93288 169.029 11.8781 170.772 12.7733C172.51 13.6395 174.785 12.4688 174.68 10.4528ZM196.45 7.91438H196.402C194.079 7.91438 192.89 10.185 194.071 12.096C195.043 13.5398 197.552 13.6211 198.691 12.3139C200.195 10.395 198.935 7.85663 196.45 7.91438Z" fill="white"/>
</g>
<defs>
<clipPath id="clip0_40001091_10550">
<rect width="210" height="16.7738" fill="white"/>
</clipPath>
</defs>
</svg>
