<svg width="115" height="17" viewBox="0 0 115 17" fill="none" xmlns="http://www.w3.org/2000/svg">
<g style="mix-blend-mode:difference" clip-path="url(#clip0_40000393_381)">
<path d="M86.182 3.906C87.2189 3.906 88.3293 3.906 89.3583 3.906C89.9673 3.90338 90.8309 3.95325 90.9858 3.62775L90.9989 3.60675C91.2509 3.15525 91.159 2.2155 91.1722 1.62488C91.1407 1.04738 91.1984 0.401626 90.5605 0.283501C89.2008 0.168001 87.0877 0.262501 85.7725 0.238876C85.2554 0.244126 84.7803 0.304501 84.712 0.939751C84.6569 1.722 84.565 2.74575 84.8013 3.5175C84.9667 3.89813 85.405 3.90338 86.1768 3.906H86.182ZM109.594 10.5184C109.534 12.6105 109.09 14.2984 106.557 15.6082C104.318 16.6897 101.824 16.758 99.3911 16.716H99.3491C95.7843 16.716 92.4427 15.6896 91.1774 13.083C91.1722 14.1068 91.1669 15.0544 91.1669 15.8025C91.1512 15.981 91.1223 16.1595 90.9674 16.2593L90.9543 16.2671C90.7364 16.401 90.2482 16.3931 89.4817 16.3958C88.7099 16.3958 87.6888 16.3958 86.8383 16.3958C86.182 16.3958 85.6465 16.401 85.3053 16.3669C85.0559 16.3406 84.901 16.2881 84.8092 16.1805C84.7645 16.1228 84.7357 16.0571 84.7173 15.9836C84.5598 16.2934 84.2317 16.4325 83.5465 16.4404C82.3522 16.4509 80.7037 16.485 79.4909 16.422C78.7585 16.3958 78.4304 15.9968 78.3963 15.3011C78.328 14.5005 78.3753 13.23 78.3543 12.2509C78.3832 10.9436 78.1705 9.18225 76.6113 8.93025C76.0102 8.8305 75.3802 9.06938 74.9549 9.49988C73.8682 10.5394 74.2383 12.9203 74.1622 14.5005C74.1753 15.9364 73.981 16.4509 72.7105 16.443C71.6711 16.464 70.2903 16.4535 69.2823 16.4482C68.563 16.4456 67.7729 16.3774 67.7099 15.4849C67.6023 14.5451 67.6705 13.5503 67.6495 12.5948C67.6338 11.2271 67.618 10.1692 66.9408 9.47625C66.0562 8.484 64.3762 8.89087 63.8459 10.0433C63.0742 11.7863 63.7435 14.1094 63.3157 15.8235C63.0348 16.5559 62.1922 16.4089 61.4939 16.4509C61.066 16.4509 60.5752 16.4509 60.0895 16.4509C59.1734 16.4141 57.8924 16.569 57.244 16.275L57.2283 16.2645C56.8844 16.0072 56.971 15.498 56.9448 15.0833C56.9448 14.6029 56.9448 13.9703 56.9448 13.2563C56.5169 14.1435 55.7688 14.9231 54.4537 15.603C52.2145 16.6845 49.7208 16.7528 47.2874 16.7108H47.2454C43.7017 16.7108 40.3784 15.6949 39.1 13.1224C39.1 13.755 39.1 14.3903 39.0974 14.9546C39.0869 15.8314 39.0502 16.3144 38.2469 16.3879C37.021 16.4719 35.3935 16.4115 34.144 16.422C33.1387 16.422 32.611 16.2881 32.6032 15.1436C32.5664 14.2853 32.5979 13.1014 32.5795 12.2273C32.5507 11.3164 32.5664 10.6575 32.191 9.93563C31.3537 8.36588 28.8022 8.5575 28.1407 10.2008C27.7889 11.0329 27.844 11.9779 27.8257 12.8756C27.7653 14.0595 27.9805 15.1147 27.6235 16.0046C27.319 16.464 26.7652 16.3931 26.2218 16.4246C25.8543 16.4299 25.4212 16.4272 24.967 16.4272C24.4394 16.4272 23.8908 16.4272 23.4078 16.4272C22.6413 16.3695 21.5335 16.6136 21.3655 15.918C21.3314 15.3746 21.313 14.7341 21.3052 14.0359C20.914 14.6685 20.3418 15.1961 19.591 15.5164C18.4518 16.0571 17.0737 16.2855 15.9082 16.3669C12.4405 16.4456 5.40292 16.3669 1.55204 16.3931C1.06641 16.3931 0.706789 16.3984 0.470539 16.3774C0.294664 16.3616 0.187039 16.3275 0.118789 16.2514C0.0111641 16.1018 0.00853914 15.8891 0.00591414 15.6686C0.00591414 13.3639 -0.00983586 4.66725 0.0111641 0.777001C0.0190391 0.622126 0.0295391 0.467251 0.126664 0.357001L0.134539 0.349126C0.292039 0.231001 0.525664 0.238876 0.759289 0.233626C3.30291 0.233626 11.8945 0.225751 15.1259 0.233626C17.2994 0.233626 20.83 0.811126 21.0348 3.5385C21.0847 4.28138 20.872 5.04263 20.4599 5.66738C20.2132 6.1845 19.0634 6.90113 19.2104 7.30275C19.3338 7.5915 19.8037 7.80938 20.1029 8.03775C20.6148 8.38163 21.0164 8.82788 21.3157 9.33187C21.3235 8.2635 21.3262 7.22138 21.313 6.29475C21.3183 5.481 21.2842 5.0295 21.5755 4.84313L21.5913 4.83263C21.8722 4.683 22.2449 4.6935 22.5809 4.67775C23.4524 4.66725 24.9408 4.66988 25.9987 4.67513C26.3977 4.683 26.8439 4.6935 27.1878 4.86675C27.5133 5.03213 27.676 5.33138 27.7837 5.64638C27.8887 5.9115 27.9333 6.32363 28.2772 6.26325C28.5712 6.18188 28.8363 5.94563 29.1093 5.78813C30.343 5.0085 32.2304 4.44675 33.766 4.47825C35.7505 4.515 38.0185 5.43375 38.7588 7.40775C38.8533 7.62825 38.9242 7.87238 38.974 8.12963C40.1763 5.3025 44.1532 4.33913 47.2507 4.38638C49.5449 4.35225 51.9048 4.38638 54.0678 5.29463C55.543 5.89575 56.4408 6.7725 56.9448 7.79625C56.9448 6.93263 56.9474 6.18975 56.9527 5.69625C56.9527 5.12925 57.0892 4.7355 57.7113 4.6935C58.8768 4.599 60.2838 4.662 61.5595 4.6515C62.557 4.63313 63.2159 4.90088 63.4915 5.838C63.838 6.741 64.4287 5.81438 65.4445 5.376C65.6362 5.2815 65.833 5.19225 66.0352 5.11088C68.5919 4.06613 71.2405 4.36013 73.2933 6.11888C74.3853 6.80663 75.0835 5.63063 76.3934 5.17913C79.0762 3.98213 83.2814 4.2315 84.5152 7.34738C84.5782 7.49438 84.628 7.64925 84.6727 7.8015C84.6727 6.96675 84.6727 6.23963 84.6727 5.73825C84.6674 5.00063 84.6858 4.6935 85.7122 4.70925C86.728 4.69613 88.3319 4.704 89.3872 4.704C90.025 4.75388 91.0094 4.53863 91.1433 5.124C91.1748 5.73038 91.1906 6.72 91.1958 7.88025C92.5188 5.24475 96.3539 4.33913 99.3569 4.38375C101.651 4.34963 104.011 4.38375 106.174 5.292C108.838 6.38138 109.626 8.358 109.6 10.5131L109.594 10.5184ZM7.86516 6.07163C9.22491 6.04538 11.7712 6.174 13.0889 5.98763C14.4434 5.691 14.3594 4.49138 13.0548 4.26563C11.7397 4.1055 9.96254 4.22363 8.52404 4.1895C7.67091 4.20263 7.18004 4.13963 6.88341 4.5465L6.86766 4.5675C6.45554 5.39963 6.90966 6.1215 7.86516 6.07163ZM13.3908 10.0144C11.9392 9.86475 10.2723 9.98025 8.70779 9.94613C7.77854 9.97237 7.24304 9.85163 6.92804 10.2926L6.91492 10.3162C6.67867 10.8124 6.65241 11.6366 7.04879 12.0671C7.25354 12.2483 7.54492 12.2692 7.81791 12.285C8.63692 12.3034 10.0544 12.2903 11.1648 12.2929C12.1465 12.2614 13.0837 12.4058 13.9394 12.0435C15.2965 11.3794 14.6114 10.1719 13.3908 10.0144ZM47.9935 7.8645H47.9463C45.6232 7.8645 44.434 10.1351 45.6153 12.0461C46.5865 13.4899 49.096 13.5713 50.2353 12.264C51.7394 10.3451 50.4794 7.80675 47.9935 7.8645ZM100.1 7.8645H100.053C97.7294 7.8645 96.5403 10.1351 97.7215 12.0461C98.6928 13.4899 101.202 13.5713 102.342 12.264C103.846 10.3451 102.586 7.80675 100.1 7.8645Z" fill="white"/>
<path d="M112.347 4.70926V4.47301C112.347 4.41264 112.297 4.36276 112.236 4.36276H110.454C110.394 4.36276 110.344 4.41264 110.344 4.47301V4.70926C110.344 4.76964 110.394 4.81951 110.454 4.81951H111.105V6.74101C111.105 6.80139 111.155 6.85126 111.215 6.85126H111.475C111.536 6.85126 111.585 6.80139 111.585 6.74101V4.81951H112.236C112.297 4.81951 112.347 4.76964 112.347 4.70926Z" fill="white"/>
<path d="M114.63 4.36276H114.89C114.951 4.36276 115 4.41264 115 4.47301V6.74364C115 6.80401 114.951 6.85389 114.89 6.85389H114.633C114.573 6.85389 114.523 6.80401 114.523 6.74364V5.26576L113.898 6.18451C113.856 6.24489 113.743 6.24489 113.701 6.18451L113.076 5.26839V6.74364C113.076 6.80401 113.027 6.85389 112.966 6.85389H112.717C112.656 6.85389 112.606 6.80401 112.606 6.74364V4.47301C112.606 4.41264 112.656 4.36276 112.717 4.36276H112.977C113.013 4.36276 113.047 4.38114 113.068 4.41264L113.803 5.51251L114.538 4.41264C114.559 4.38114 114.594 4.36276 114.63 4.36276Z" fill="white"/>
</g>
<defs>
<clipPath id="clip0_40000393_381">
<rect width="115" height="17" fill="white"/>
</clipPath>
</defs>
</svg>
